PathFileType  4	(X/Y/Z) C:\Users\antoi\Documents\MyRepositories\mobilecap\ResultsAnalysis
DataRate	CameraRate	NumFrames	NumMarkers	Units	OrigDataRate	OrigDataStartFrame	OrigNumFrames
100.0	100.0	4	55	mm	100.0	314	501
Frame#	Time	r_knee			r_shank_antsup			r_ankle			r_calc			r_5meta			r_toe			L_knee			L_shank_antsup			L_ankle			L_calc			L_5meta			L_toe			r_mknee			r_mankle			L_mknee			L_mankle			r_sh2			r_sh3			r_sh4			L_sh2			L_sh3			r_thigh1			r_thigh2			r_thigh3			r_thigh4			r_thigh5			L_thigh1			L_thigh2			L_thigh3			L_thigh4			r.ASIS			r.PSIS			L.ASIS			L.PSIS			C7			R_Shoulder			L_Shoulder			R_Sternum			L_Sternum			R_humerus			R_elbow_med			R_elbow_lat			R_forearm			R_wrist_radius			R_wrist_ulna			L_humerus			L_elbow_med			L_elbow_lat			L_forearm			L_wrist_radius			L_wrist_ulna			R_HJC			L_HJC			R_HJC_reg			L_HJC_reg			
		X1	Y1	Z1	X2	Y2	Z2	X3	Y3	Z3	X4	Y4	Z4	X5	Y5	Z5	X6	Y6	Z6	X7	Y7	Z7	X8	Y8	Z8	X9	Y9	Z9	X10	Y10	Z10	X11	Y11	Z11	X12	Y12	Z12	X13	Y13	Z13	X14	Y14	Z14	X15	Y15	Z15	X16	Y16	Z16	X17	Y17	Z17	X18	Y18	Z18	X19	Y19	Z19	X20	Y20	Z20	X21	Y21	Z21	X22	Y22	Z22	X23	Y23	Z23	X24	Y24	Z24	X25	Y25	Z25	X26	Y26	Z26	X27	Y27	Z27	X28	Y28	Z28	X29	Y29	Z29	X30	Y30	Z30	X31	Y31	Z31	X32	Y32	Z32	X33	Y33	Z33	X34	Y34	Z34	X35	Y35	Z35	X36	Y36	Z36	X37	Y37	Z37	X38	Y38	Z38	X39	Y39	Z39	X40	Y40	Z40	X41	Y41	Z41	X42	Y42	Z42	X43	Y43	Z43	X44	Y44	Z44	X45	Y45	Z45	X46	Y46	Z46	X47	Y47	Z47	X48	Y48	Z48	X49	Y49	Z49	X50	Y50	Z50	X51	Y51	Z51	X52	Y52	Z52	X53	Y53	Z53	X54	Y54	Z54	X55	Y55	Z55	

314	3.13000000	-253.95700	475.25246	-420.47553	-230.95059	421.86883	-413.19193	-256.36447	86.85290	-387.74636	-308.32672	53.81201	-429.84887	-147.37767	42.60608	-354.07851	-109.20579	60.54532	-406.87849	-228.10407	473.00655	-773.79794	-199.26096	392.59966	-770.80433	-251.86367	94.61762	-816.08724	-308.67182	50.46208	-779.28314	-147.65943	44.90109	-846.19300	-101.22571	59.36544	-789.92417	-247.85226	448.26862	-547.98793	-240.15212	96.66258	-465.62042	-236.29421	448.09931	-646.77357	-240.78965	97.09638	-735.98325	-240.03436	311.29307	-389.31392	-303.45660	434.44172	-393.28556	-320.19240	316.99434	-378.24461	-276.38447	416.80551	-814.28646	-283.67090	296.32264	-837.38351	-157.94944	719.93810	-396.77443	-169.29934	607.50331	-406.34627	-232.67621	589.03085	-396.71844	-271.52028	727.49365	-408.68376	-277.56028	611.00965	-420.43535	-136.26701	747.72183	-792.29826	-142.19161	607.45553	-773.15020	-246.99870	748.31549	-808.39784	-255.64430	613.63492	-780.22951	-99.90037	919.19799	-479.75679	-307.38190	943.48620	-564.47488	-91.43909	925.01633	-704.36530	-302.20810	946.54355	-643.82463	-257.40915	1384.68019	-595.64583	-208.74576	1358.49511	-451.28552	-214.28563	1357.93505	-733.66804	-129.14875	1329.90915	-570.36882	-129.49007	1328.84673	-610.47586	-184.63506	1249.08196	-386.19131	-253.63697	1039.70181	-394.80438	-233.67611	1056.48172	-337.14670	-177.44972	994.86097	-295.30935	-137.89676	856.86596	-260.54481	-173.92149	854.91094	-246.16604	-209.05205	1259.24299	-809.25811	-242.58891	1038.01286	-797.62278	-232.88405	1062.74182	-856.27627	-175.29633	982.70022	-898.04608	-129.68704	862.53360	-917.29311	-167.04787	857.40165	-933.23942	-179.35532	829.53191	-493.78254	-170.35314	837.45861	-700.94303	-168.71008	847.17299	-517.97908	-159.06191	852.87429	-665.95160	
315	3.14000000	-253.97725	475.29617	-420.48797	-230.98010	421.86501	-413.18263	-256.39516	86.85199	-387.74205	-308.33141	53.78692	-429.85925	-147.38637	42.61896	-354.12972	-109.19091	60.54278	-406.88702	-228.09658	472.98136	-773.79824	-199.25406	392.57926	-770.81220	-251.88618	94.63705	-816.09493	-308.64898	50.49500	-779.35825	-147.65841	44.88227	-846.19469	-101.22685	59.36602	-789.93917	-247.85218	448.26375	-547.99185	-240.14324	96.66127	-465.73233	-236.37098	448.17638	-646.69584	-240.79541	97.09838	-735.97856	-239.99841	311.29187	-389.33969	-304.29801	433.26809	-393.46941	-320.22493	316.98194	-378.26400	-276.36785	416.78829	-814.29192	-283.68910	296.31687	-837.36921	-157.98160	720.00447	-396.77516	-169.39289	607.48444	-406.54097	-232.79482	589.07130	-396.67266	-271.55069	727.49908	-408.71662	-277.55343	611.04920	-420.38865	-136.26970	747.72202	-792.29285	-142.15756	607.42607	-773.09561	-246.96658	748.29710	-808.41981	-255.62074	613.62756	-780.23614	-99.86804	919.17929	-479.76218	-307.39231	943.46055	-564.50361	-91.40485	924.98391	-704.36406	-302.12777	946.56586	-643.84437	-257.36598	1384.68763	-595.70684	-208.73696	1358.55862	-451.41036	-214.22651	1357.92238	-733.74872	-129.10382	1329.94522	-570.43922	-129.46446	1328.87242	-610.50211	-184.55612	1249.16970	-386.21781	-253.60578	1039.79937	-394.67314	-233.61327	1056.51868	-337.14213	-177.39178	994.94384	-295.28537	-137.86252	856.92250	-260.51008	-173.86630	855.00762	-246.02930	-208.99002	1259.21509	-809.26891	-242.47433	1037.99215	-797.62504	-232.80805	1062.70687	-856.30192	-175.18783	982.68523	-898.10623	-129.51997	862.51708	-917.24045	-166.89491	857.35505	-933.28552	-179.34507	829.51389	-493.79532	-170.31766	837.44372	-700.95458	-168.74057	847.08492	-518.11168	-158.92348	852.87557	-666.06509	
316	3.15000000	-253.97616	475.35735	-420.48977	-230.96810	421.86646	-413.15925	-256.37906	86.80884	-387.81164	-308.31828	53.79341	-429.87474	-147.38505	42.64285	-354.09963	-109.18121	60.53853	-406.89448	-228.08630	472.97599	-773.79401	-199.25038	392.57138	-770.82224	-251.89641	94.64696	-816.10391	-308.64679	50.48376	-779.37505	-147.66161	44.87711	-846.20024	-101.22516	59.35359	-789.93354	-247.85357	448.26179	-547.99057	-240.13704	96.66701	-465.79818	-236.35594	448.16414	-646.69966	-240.80182	97.09622	-735.97915	-239.99475	311.29474	-389.35803	-304.42113	433.13641	-393.57238	-320.27698	316.95492	-378.30119	-276.35037	416.77721	-814.29647	-283.67371	296.28171	-837.36414	-158.00462	720.06216	-396.77671	-169.46023	607.43911	-406.81378	-232.89498	589.06499	-396.64921	-271.59574	727.50423	-408.76966	-277.57761	611.10530	-420.41539	-136.25994	747.72428	-792.29489	-142.13670	607.41249	-773.08544	-246.93886	748.29502	-808.43245	-255.57705	613.60570	-780.20174	-99.87832	919.14864	-479.78584	-307.42914	943.49302	-564.56621	-91.37971	924.95979	-704.35145	-302.11133	946.59554	-643.90494	-257.32170	1384.69612	-595.79581	-208.72813	1358.61211	-451.50559	-214.15604	1357.91469	-733.84624	-129.05092	1329.98731	-570.47118	-129.44127	1328.89664	-610.53662	-184.48372	1249.24257	-386.25595	-253.58466	1039.98661	-394.70688	-233.54637	1056.56242	-337.18689	-177.34669	995.04464	-295.25059	-137.81058	856.99833	-260.43805	-173.78275	855.11979	-245.91923	-208.92337	1259.18486	-809.30637	-242.33887	1037.96278	-797.60518	-232.72991	1062.68347	-856.33130	-175.04455	982.69007	-898.19282	-129.35865	862.49808	-917.15143	-166.73863	857.35864	-933.37287	-179.39931	829.50682	-493.82722	-170.31927	837.44107	-700.98401	-168.80835	847.09128	-518.17552	-158.89350	852.87578	-666.09980	
317	3.16000000	-253.97252	475.37433	-420.48925	-230.94178	421.88400	-413.15996	-256.34785	86.78101	-387.89642	-308.31024	53.80337	-429.88269	-147.37927	42.64083	-354.05894	-109.17567	60.53546	-406.88954	-228.06994	472.98768	-773.79438	-199.24798	392.59193	-770.84204	-251.87760	94.62062	-816.10483	-308.64007	50.47088	-779.34874	-147.67375	44.89265	-846.21912	-101.22886	59.34268	-789.93102	-247.85436	448.26332	-547.99097	-240.14495	96.67753	-465.78569	-236.34126	448.14168	-646.71689	-240.79405	97.11119	-735.97872	-240.05891	311.26288	-389.36878	-304.06191	433.66179	-393.56210	-320.31390	316.93863	-378.34367	-276.33925	416.77861	-814.29877	-283.63312	296.24729	-837.38862	-158.00920	720.03811	-396.77460	-169.44667	607.42633	-406.86121	-232.87916	589.01162	-396.70106	-271.59166	727.52576	-408.77517	-277.62551	611.10761	-420.47983	-136.25108	747.72528	-792.28847	-142.11863	607.40844	-773.09669	-246.89889	748.31376	-808.44574	-255.53534	613.59237	-780.18525	-99.89002	919.12204	-479.79912	-307.42598	943.55614	-564.67096	-91.35139	924.95738	-704.34371	-302.09303	946.64328	-643.95031	-257.29317	1384.68754	-595.89455	-208.65645	1358.65211	-451.55910	-214.08728	1357.88432	-733.92476	-129.00528	1330.02150	-570.47302	-129.38754	1328.91015	-610.60981	-184.42631	1249.31786	-386.26523	-253.52096	1040.08879	-394.74533	-233.46149	1056.62502	-337.21090	-177.27777	995.18769	-295.14821	-137.71486	857.12946	-260.31426	-173.74392	855.21816	-245.89646	-208.86092	1259.14691	-809.34638	-242.19193	1037.93029	-797.58390	-232.64887	1062.66498	-856.36820	-174.89107	982.70976	-898.26292	-129.22247	862.46691	-917.10432	-166.58678	857.36514	-933.40634	-179.45310	829.51211	-493.86866	-170.31164	837.46019	-701.02222	-168.85301	847.12708	-518.19071	-158.90326	852.88676	-666.10113	
